<svg width="16" height="16" viewBox="0 0 16 16" fill="none" xmlns="http://www.w3.org/2000/svg">
<path fill-rule="evenodd" clip-rule="evenodd" d="M10.317 0C10.5942 0 10.8163 0.225378 10.8428 0.501284C11.0792 2.9623 13.0377 4.92081 15.4987 5.15715C15.7746 5.18367 16 5.40581 16 5.68297V10.317C16 10.5942 15.7746 10.8163 15.4987 10.8429C13.0377 11.0792 11.0792 13.0377 10.8428 15.4987C10.8163 15.7746 10.5942 16 10.317 16H5.68299C5.40581 16 5.18368 15.7746 5.15717 15.4987C4.92085 13.0377 2.96229 11.0792 0.50128 10.8429C0.225379 10.8163 0 10.5942 0 10.317V5.68297C0 5.40581 0.22538 5.18367 0.501284 5.15715C2.9623 4.92081 4.92085 2.9623 5.15717 0.501284C5.18368 0.225378 5.40581 0 5.68299 0H10.317ZM3.2125 7.98645C3.2125 10.6486 5.36815 12.8067 8.0273 12.8067C10.6865 12.8067 12.8421 10.6486 12.8421 7.98645C12.8421 5.32432 10.6865 3.16623 8.0273 3.16623C5.36815 3.16623 3.2125 5.32432 3.2125 7.98645Z" fill="#F2133F"/>
</svg>
