<svg width="16" height="16" viewBox="0 0 16 16" fill="none" xmlns="http://www.w3.org/2000/svg">
<g clip-path="url(#clip0_38_760)">
<path d="M16.1134 8.17808C16.1134 7.63365 16.0697 7.08922 15.9821 6.55591H8.55023V9.63359H12.808C12.6328 10.6224 12.0637 11.5113 11.2318 12.0668V14.0668H13.7711C15.2597 12.6779 16.1134 10.6224 16.1134 8.17808Z" fill="#4285F4"/>
<path d="M8.5504 15.9999C10.6738 15.9999 12.4688 15.2888 13.7713 14.0666L11.232 12.0667C10.5206 12.5556 9.61209 12.8333 8.5504 12.8333C6.49268 12.8333 4.75238 11.4223 4.1285 9.53345H1.51257V11.6C2.8479 14.3 5.57328 15.9999 8.5504 15.9999Z" fill="#34A853"/>
<path d="M4.12869 9.53368C3.80028 8.54482 3.80028 7.46708 4.12869 6.46711V4.41162H1.51235C0.384801 6.6671 0.384801 9.33369 1.51235 11.5892L4.12869 9.53368Z" fill="#FBBC04"/>
<path d="M8.55034 3.16705C9.6777 3.14483 10.7613 3.57815 11.5712 4.36701L13.826 2.07819C12.3921 0.722683 10.5095 -0.021738 8.55034 0.000483551C5.57322 0.000483551 2.84784 1.71154 1.51251 4.41145L4.12844 6.47805C4.75232 4.57811 6.49262 3.16705 8.55034 3.16705Z" fill="#EA4335"/>
</g>
<defs>
<clipPath id="clip0_38_760">
<rect width="16" height="16" fill="white"/>
</clipPath>
</defs>
</svg>
