<svg width="20" height="20" viewBox="0 0 20 20" fill="none" xmlns="http://www.w3.org/2000/svg">
<path d="M11.6666 1.66675C9.36544 1.66675 7.49996 3.53223 7.49996 5.83342V12.3959C7.49996 13.7191 8.57261 14.7917 9.89579 14.7917C11.219 14.7917 12.2916 13.7191 12.2916 12.3959V6.45842C12.2916 6.11324 12.0118 5.83342 11.6666 5.83342C11.3214 5.83342 11.0416 6.11324 11.0416 6.45842V12.3959C11.0416 13.0287 10.5286 13.5417 9.89579 13.5417C9.26297 13.5417 8.74996 13.0287 8.74996 12.3959V5.83342C8.74996 4.22258 10.0558 2.91675 11.6666 2.91675C13.2775 2.91675 14.5833 4.22258 14.5833 5.83341V12.7084C14.5833 15.1247 12.6245 17.0834 10.2083 17.0834H9.79163C7.37538 17.0834 5.41663 15.1247 5.41663 12.7084V8.95842C5.41663 8.61324 5.1368 8.33342 4.79163 8.33342C4.44645 8.33342 4.16663 8.61324 4.16663 8.95842V12.7084C4.16663 15.815 6.68502 18.3334 9.79163 18.3334H10.2083C13.3149 18.3334 15.8333 15.815 15.8333 12.7084V5.83341C15.8333 3.53223 13.9678 1.66675 11.6666 1.66675Z" fill="white"/>
</svg>
