<svg width="25" height="24" viewBox="0 0 25 24" fill="none" xmlns="http://www.w3.org/2000/svg">
<path d="M13.25 6.75V6H11.75V6.75H13.25ZM11.75 17.25V18H13.25V17.25H11.75ZM12.5 6.75H11.75V8.5H12.5H13.25V6.75H12.5ZM12.5 15.5H11.75V17.25H12.5H13.25V15.5H12.5ZM21.75 12H21C21 16.6944 17.1944 20.5 12.5 20.5V21.25V22C18.0228 22 22.5 17.5228 22.5 12H21.75ZM12.5 21.25V20.5C7.80558 20.5 4 16.6944 4 12H3.25H2.5C2.5 17.5228 6.97715 22 12.5 22V21.25ZM3.25 12H4C4 7.30558 7.80558 3.5 12.5 3.5V2.75V2C6.97715 2 2.5 6.47715 2.5 12H3.25ZM12.5 2.75V3.5C17.1944 3.5 21 7.30558 21 12H21.75H22.5C22.5 6.47715 18.0228 2 12.5 2V2.75ZM12.5 15.5V14.75C10.9812 14.75 9.75 13.5188 9.75 12H9H8.25C8.25 14.3472 10.1528 16.25 12.5 16.25V15.5ZM9 12H9.75C9.75 10.4812 10.9812 9.25 12.5 9.25V8.5V7.75C10.1528 7.75 8.25 9.65279 8.25 12H9ZM12.5 8.5V9.25C13.4995 9.25 14.3752 9.78271 14.8576 10.5833L15.5 10.1962L16.1424 9.80913C15.3999 8.57687 14.0469 7.75 12.5 7.75V8.5ZM15.5 13.8038L14.8576 13.4167C14.3752 14.2173 13.4995 14.75 12.5 14.75V15.5V16.25C14.0469 16.25 15.3999 15.4231 16.1424 14.1909L15.5 13.8038Z" fill="#49B9FF"/>
</svg>
