<svg width="20" height="20" viewBox="0 0 20 20" fill="none" xmlns="http://www.w3.org/2000/svg">
<path fill-rule="evenodd" clip-rule="evenodd" d="M10.8333 3.125C10.8333 2.77982 11.1132 2.5 11.4583 2.5H15.625C16.6605 2.5 17.5 3.33947 17.5 4.375V8.54167C17.5 8.88684 17.2202 9.16667 16.875 9.16667C16.5298 9.16667 16.25 8.88684 16.25 8.54167V4.63388L12.1086 8.77528C11.8645 9.01935 11.4688 9.01935 11.2247 8.77528C10.9806 8.5312 10.9806 8.13547 11.2247 7.89139L15.3661 3.75H11.4583C11.1132 3.75 10.8333 3.47018 10.8333 3.125ZM3.125 10.8333C3.47018 10.8333 3.75 11.1132 3.75 11.4583V15.3661L7.89139 11.2247C8.13547 10.9806 8.5312 10.9806 8.77528 11.2247C9.01935 11.4688 9.01935 11.8645 8.77528 12.1086L4.63388 16.25H8.54167C8.88684 16.25 9.16667 16.5298 9.16667 16.875C9.16667 17.2202 8.88684 17.5 8.54167 17.5H4.375C3.33947 17.5 2.5 16.6605 2.5 15.625V11.4583C2.5 11.1132 2.77982 10.8333 3.125 10.8333Z" fill="white" fill-opacity="0.4"/>
</svg>
