<svg width="16" height="16" viewBox="0 0 16 16" fill="none" xmlns="http://www.w3.org/2000/svg">
<path fill-rule="evenodd" clip-rule="evenodd" d="M7.43853 1.91906C7.82814 1.36248 8.60999 1.16128 9.22058 1.58112C9.85501 2.01736 10.9522 2.86049 11.8965 4.04408C12.8403 5.22709 13.6668 6.796 13.6668 8.66651C13.6668 11.9981 11.1653 14.6665 8.00016 14.6665C4.83498 14.6665 2.3335 11.9981 2.3335 8.66651C2.3335 7.3096 2.91622 5.57588 4.05185 4.19172C4.54941 3.58528 5.40794 3.62145 5.90954 4.10334L7.43853 1.91906ZM8.00016 13.3332C8.96666 13.3332 9.75016 12.4388 9.75016 11.3356C9.75016 10.1518 8.82937 9.28098 8.32363 8.89199C8.13054 8.74348 7.86979 8.74348 7.6767 8.89199C7.17095 9.28098 6.25016 10.1518 6.25016 11.3356C6.25016 12.4388 7.03366 13.3332 8.00016 13.3332Z" fill="white" fill-opacity="0.12"/>
</svg>
