<svg width="16" height="16" viewBox="0 0 16 16" fill="none" xmlns="http://www.w3.org/2000/svg">
<path fill-rule="evenodd" clip-rule="evenodd" d="M7.43841 1.91906C7.82802 1.36248 8.60987 1.16128 9.22046 1.58112C9.85489 2.01736 10.952 2.86049 11.8963 4.04408C12.8402 5.22709 13.6667 6.796 13.6667 8.66651C13.6667 11.9981 11.1652 14.6665 8.00004 14.6665C4.83486 14.6665 2.33337 11.9981 2.33337 8.66651C2.33337 7.3096 2.9161 5.57588 4.05173 4.19172C4.54928 3.58528 5.40781 3.62145 5.90942 4.10334L7.43841 1.91906ZM8.00004 13.3332C8.96654 13.3332 9.75004 12.4388 9.75004 11.3356C9.75004 10.1518 8.82925 9.28098 8.3235 8.89199C8.13042 8.74348 7.86967 8.74348 7.67658 8.89199C7.17083 9.28098 6.25004 10.1518 6.25004 11.3356C6.25004 12.4388 7.03354 13.3332 8.00004 13.3332Z" fill="url(#paint0_linear_38_1149)"/>
<defs>
<linearGradient id="paint0_linear_38_1149" x1="8.33337" y1="1.33325" x2="8.33337" y2="14.9999" gradientUnits="userSpaceOnUse">
<stop stop-color="#FF7700"/>
<stop offset="1" stop-color="#EF0000"/>
</linearGradient>
</defs>
</svg>
