<svg width="81" height="80" viewBox="0 0 81 80" fill="none" xmlns="http://www.w3.org/2000/svg">
<path d="M45.7485 27.8364L47.3426 24.6481C47.9568 23.4197 49.7098 23.4197 50.324 24.6481L51.9182 27.8364C52.0795 28.159 52.341 28.4205 52.6636 28.5818L55.8519 30.176C57.0803 30.7902 57.0803 32.5432 55.8519 33.1574L52.6636 34.7515C52.341 34.9128 52.0795 35.1744 51.9182 35.4969L50.324 38.6852C49.7098 39.9137 47.9568 39.9137 47.3426 38.6852L45.7485 35.4969C45.5872 35.1744 45.3256 34.9128 45.0031 34.7515L41.8148 33.1574C40.5863 32.5432 40.5863 30.7902 41.8148 30.176L45.0031 28.5818C45.3256 28.4205 45.5872 28.159 45.7485 27.8364Z" fill="white" fill-opacity="0.2"/>
<path fill-rule="evenodd" clip-rule="evenodd" d="M10.5 23.3333C10.5 15.9695 16.4695 10 23.8333 10H57.1667C64.5305 10 70.5 15.9695 70.5 23.3333V56.6667C70.5 64.0305 64.5305 70 57.1667 70H23.8333C16.4695 70 10.5 64.0305 10.5 56.6667V23.3333ZM23.8333 16.6667C20.1514 16.6667 17.1667 19.6514 17.1667 23.3333V45.286L17.7386 44.714C22.9456 39.507 31.3878 39.5071 36.5948 44.714L55.214 63.3333H57.1667C60.8486 63.3333 63.8333 60.3486 63.8333 56.6667V23.3333C63.8333 19.6514 60.8486 16.6667 57.1667 16.6667H23.8333Z" fill="white" fill-opacity="0.2"/>
</svg>
