<svg width="25" height="24" viewBox="0 0 25 24" fill="none" xmlns="http://www.w3.org/2000/svg">
<path fill-rule="evenodd" clip-rule="evenodd" d="M17.4696 3.46979C18.4529 2.48654 20.047 2.48654 21.0303 3.46979C22.0135 4.45304 22.0135 6.0472 21.0303 7.03045L7.53028 20.5305C6.54703 21.5137 4.95286 21.5137 3.96961 20.5305C2.98636 19.5472 2.98637 17.953 3.96962 16.9698L17.4696 3.46979ZM19.9696 4.53045C19.5722 4.13299 18.9277 4.13299 18.5303 4.53045L15.8106 7.25012L17.2499 8.68946L19.9696 5.96979C20.3671 5.57233 20.3671 4.92791 19.9696 4.53045ZM16.1893 9.75012L14.7499 8.31078L5.03028 18.0305C4.63281 18.4279 4.63281 19.0723 5.03027 19.4698C5.42774 19.8673 6.07215 19.8673 6.46962 19.4698L16.1893 9.75012Z" fill="#49B9FF"/>
<path d="M10.35 2.07467C10.4468 2.02628 10.5253 1.94782 10.5736 1.85106L11.0519 0.894557C11.2361 0.526033 11.762 0.526033 11.9463 0.894557L12.4246 1.85106C12.4729 1.94782 12.5514 2.02628 12.6482 2.07467L13.6047 2.55292C13.9732 2.73718 13.9732 3.26308 13.6047 3.44734L12.6482 3.92559C12.5514 3.97398 12.4729 4.05244 12.4246 4.1492L11.9463 5.1057C11.762 5.47423 11.2361 5.47423 11.0519 5.1057L10.5736 4.1492C10.5253 4.05244 10.4468 3.97398 10.35 3.92559L9.39353 3.44734C9.025 3.26308 9.025 2.73718 9.39353 2.55292L10.35 2.07467Z" fill="#49B9FF"/>
<path d="M19.35 13.0747C19.4468 13.0263 19.5253 12.9478 19.5736 12.8511L20.0519 11.8946C20.2361 11.526 20.7621 11.526 20.9463 11.8946L21.4246 12.8511C21.4729 12.9478 21.5514 13.0263 21.6482 13.0747L22.6047 13.5529C22.9732 13.7372 22.9732 14.2631 22.6047 14.4473L21.6482 14.9256C21.5514 14.974 21.4729 15.0524 21.4246 15.1492L20.9463 16.1057C20.7621 16.4742 20.2361 16.4742 20.0519 16.1057L19.5736 15.1492C19.5253 15.0524 19.4468 14.974 19.35 14.9256L18.3935 14.4473C18.025 14.2631 18.025 13.7372 18.3935 13.5529L19.35 13.0747Z" fill="#49B9FF"/>
<path d="M5.35003 7.07467C5.44679 7.02628 5.52525 6.94782 5.57363 6.85106L6.05188 5.89456C6.23615 5.52603 6.76205 5.52603 6.94631 5.89456L7.42456 6.85106C7.47294 6.94782 7.55141 7.02628 7.64817 7.07467L8.60467 7.55292C8.9732 7.73718 8.9732 8.26308 8.60467 8.44734L7.64817 8.92559C7.55141 8.97398 7.47294 9.05244 7.42456 9.1492L6.94631 10.1057C6.76205 10.4742 6.23615 10.4742 6.05188 10.1057L5.57363 9.1492C5.52525 9.05244 5.44679 8.97398 5.35003 8.92559L4.39353 8.44734C4.025 8.26308 4.025 7.73718 4.39353 7.55292L5.35003 7.07467Z" fill="#49B9FF"/>
</svg>
