<svg width="20" height="20" viewBox="0 0 20 20" fill="none" xmlns="http://www.w3.org/2000/svg">
<path fill-rule="evenodd" clip-rule="evenodd" d="M11.4583 2.5C11.8035 2.5 12.0833 2.77982 12.0833 3.125V7.03278L16.4331 2.68306C16.6771 2.43898 17.0729 2.43898 17.3169 2.68306C17.561 2.92714 17.561 3.32286 17.3169 3.56694L12.9672 7.91667H16.875C17.2202 7.91667 17.5 8.19649 17.5 8.54167C17.5 8.88684 17.2202 9.16667 16.875 9.16667H11.4583C11.1132 9.16667 10.8333 8.88684 10.8333 8.54167V3.125C10.8333 2.77982 11.1132 2.5 11.4583 2.5ZM2.5 11.4583C2.5 11.1132 2.77982 10.8333 3.125 10.8333H8.54167C8.88684 10.8333 9.16667 11.1132 9.16667 11.4583V16.875C9.16667 17.2202 8.88684 17.5 8.54167 17.5C8.19649 17.5 7.91667 17.2202 7.91667 16.875V12.9672L3.56694 17.3169C3.32286 17.561 2.92714 17.561 2.68306 17.3169C2.43898 17.0729 2.43898 16.6771 2.68306 16.4331L7.03278 12.0833H3.125C2.77982 12.0833 2.5 11.8035 2.5 11.4583Z" fill="white" fill-opacity="0.4"/>
</svg>
