<svg width="81" height="80" viewBox="0 0 81 80" fill="none" xmlns="http://www.w3.org/2000/svg">
<path fill-rule="evenodd" clip-rule="evenodd" d="M37.1667 16.642C37.1667 12.386 41.1004 9.21981 45.258 10.1293L65.258 14.5043C68.3185 15.1738 70.5 17.884 70.5 21.017V58.9843C70.5 62.1173 68.3185 64.8275 65.258 65.497L45.258 69.872C41.1003 70.7815 37.1667 67.6153 37.1667 63.3593V16.642ZM63.8333 21.017L43.8333 16.642V63.3593L63.8333 58.9843V21.017ZM27.1667 13.334C29.0076 13.334 30.5 14.8264 30.5 16.6673V63.334C30.5 65.1749 29.0076 66.6673 27.1667 66.6673C25.3257 66.6673 23.8333 65.1749 23.8333 63.334V16.6673C23.8333 14.8264 25.3257 13.334 27.1667 13.334ZM13.8333 16.6673C15.6743 16.6673 17.1667 18.1597 17.1667 20.0006V60.0006C17.1667 61.8416 15.6743 63.334 13.8333 63.334C11.9924 63.334 10.5 61.8416 10.5 60.0006V20.0006C10.5 18.1597 11.9924 16.6673 13.8333 16.6673Z" fill="white" fill-opacity="0.2"/>
</svg>
