<svg width="30" height="30" viewBox="0 0 30 30" fill="none" xmlns="http://www.w3.org/2000/svg">
<path fill-rule="evenodd" clip-rule="evenodd" d="M15 0C6.71573 0 0 6.71573 0 15C0 23.2843 6.71573 30 15 30C23.2843 30 30 23.2843 30 15C30 6.71573 23.2843 0 15 0ZM16.125 11.341L19.0795 14.2955C19.5188 14.7348 20.2312 14.7348 20.6705 14.2955C21.1098 13.8562 21.1098 13.1438 20.6705 12.7045L17.3865 9.4205C16.0685 8.10248 13.9315 8.10248 12.6135 9.4205L9.3295 12.7045C8.89017 13.1438 8.89017 13.8562 9.3295 14.2955C9.76884 14.7348 10.4812 14.7348 10.9205 14.2955L13.875 11.341V21.375C13.875 21.9963 14.3787 22.5 15 22.5C15.6213 22.5 16.125 21.9963 16.125 21.375V11.341Z" fill="url(#paint0_linear_22_176)"/>
<defs>
<linearGradient id="paint0_linear_22_176" x1="0" y1="0" x2="30" y2="30" gradientUnits="userSpaceOnUse">
<stop stop-color="#004AE9"/>
<stop offset="0.481284" stop-color="#0090E9"/>
<stop offset="1" stop-color="#7CC2FF"/>
</linearGradient>
</defs>
</svg>
