<svg width="67" height="68" viewBox="0 0 67 68" fill="none" xmlns="http://www.w3.org/2000/svg">
<path d="M14.3337 19.0001C16.6348 19.0001 18.5003 17.1346 18.5003 14.8334C18.5003 12.5322 16.6348 10.6667 14.3337 10.6667C12.0325 10.6667 10.167 12.5322 10.167 14.8334C10.167 17.1346 12.0325 19.0001 14.3337 19.0001Z" fill="white" fill-opacity="0.2"/>
<path fill-rule="evenodd" clip-rule="evenodd" d="M13.5003 0.666748C6.13653 0.666748 0.166992 6.63629 0.166992 14.0001V34.0056C0.169969 41.3669 6.13837 47.3334 13.5003 47.3334H20.167V54.0001C20.167 61.3639 26.1365 67.3334 33.5003 67.3334H53.5003C60.8641 67.3334 66.8337 61.3639 66.8337 54.0001V34.0001C66.8337 26.6363 60.8641 20.6667 53.5003 20.6667H46.8337V14.0001C46.8337 6.63629 40.8641 0.666748 33.5003 0.666748H13.5003ZM40.167 20.6667V14.0001C40.167 10.3182 37.1822 7.33342 33.5003 7.33342H13.5003C9.81843 7.33342 6.83366 10.3182 6.83366 14.0001V27.8047C11.2029 25.2804 16.6573 25.4314 20.8967 28.2576L21.3298 28.5464C23.4143 23.9017 28.0795 20.6667 33.5003 20.6667H40.167ZM20.167 35.7835L17.1987 33.8046C14.9594 32.3118 12.042 32.3118 9.80268 33.8046L7.03871 35.6473C7.77199 38.5325 10.3869 40.6667 13.5003 40.6667H20.167V35.7835ZM42.0785 51.9953C39.8693 53.5418 36.8337 51.9613 36.8337 49.2646V38.7356C36.8337 36.0389 39.8693 34.4584 42.0785 36.0048L49.5992 41.2693C51.4949 42.5963 51.4949 45.4039 49.5992 46.7309L42.0785 51.9953Z" fill="white" fill-opacity="0.2"/>
</svg>
