<svg width="81" height="80" viewBox="0 0 81 80" fill="none" xmlns="http://www.w3.org/2000/svg">
<path fill-rule="evenodd" clip-rule="evenodd" d="M31.8589 11.5253C35.7176 4.91021 45.2757 4.91019 49.1344 11.5253L72.5275 51.6277C76.4164 58.2943 71.6076 66.6664 63.8897 66.6664H17.1036C9.38566 66.6664 4.57694 58.2943 8.46577 51.6277L31.8589 11.5253ZM40.5 26.6665C42.3409 26.6665 43.8333 28.1589 43.8333 29.9998V39.9998C43.8333 41.8408 42.3409 43.3332 40.5 43.3332C38.659 43.3332 37.1666 41.8408 37.1666 39.9998V29.9998C37.1666 28.1589 38.659 26.6665 40.5 26.6665ZM36.3333 49.9998C36.3333 47.6987 38.1988 45.8332 40.5 45.8332C42.8011 45.8332 44.6666 47.6987 44.6666 49.9998C44.6666 52.301 42.8011 54.1665 40.5 54.1665C38.1988 54.1665 36.3333 52.301 36.3333 49.9998Z" fill="white" fill-opacity="0.2"/>
</svg>
