<svg width="356" height="40" viewBox="0 0 356 40" fill="none" xmlns="http://www.w3.org/2000/svg">
<path d="M0 34.9206C1.19807 33.1217 2.18471 31.4462 2.95993 29.8942C3.77039 28.3422 4.54561 26.5432 5.28559 24.4974C7.78743 25.9436 10.6945 27.0723 14.0068 27.8836C17.3191 28.6949 20.4024 29.1005 23.2566 29.1005C26.1813 29.1005 28.2427 28.8536 29.4407 28.3598C30.6388 27.8307 31.2378 27.2663 31.2378 26.6667C31.2378 24.515 27.9608 23.4392 21.4066 23.4392C14.2182 23.4392 9.00312 22.6984 5.76129 21.2169C2.51946 19.7002 0.89855 17.2663 0.89855 13.9153C0.89855 9.15344 2.87184 5.64374 6.81841 3.38624C10.765 1.12875 15.892 0 22.1995 0C25.8641 0 29.6169 0.476191 33.4578 1.42857C37.3339 2.34568 40.8224 3.61552 43.9232 5.2381C42.9014 7.56614 41.8266 10.4056 40.699 13.7566C40.4876 14.4621 40.3114 14.9912 40.1705 15.3439C38.3734 13.8977 35.6601 12.6984 32.0307 11.746C28.4012 10.7584 25.1946 10.2646 22.4109 10.2646C19.0634 10.2646 16.8082 10.4938 15.6453 10.9524C14.4825 11.3757 13.9011 12.0106 13.9011 12.8571C13.9011 13.7037 14.6939 14.3915 16.2796 14.9206C17.9005 15.4145 20.2262 15.6614 23.2566 15.6614C30.7269 15.6614 36.1534 16.5256 39.5362 18.254C42.919 19.9471 44.6104 22.5573 44.6104 26.0847C44.6104 31.0229 42.8133 34.5855 39.2191 36.7725C35.6249 38.9242 30.1807 40 22.8866 40C18.9753 40 14.9935 39.5767 10.9412 38.7302C6.88888 37.8483 3.24183 36.5785 0 34.9206Z" fill="white"/>
<path d="M79.539 11.5873C75.3458 11.3757 72.2449 11.2522 70.2364 11.2169V29.3122C72.2801 29.2769 75.381 29.1534 79.539 28.9418V39.4709H48.8297V28.9418C52.882 29.1534 55.9653 29.2769 58.0795 29.3122V11.2169C55.9653 11.2522 52.882 11.3757 48.8297 11.5873V1.0582H79.539V11.5873Z" fill="white"/>
<path d="M114.748 20.3704C122.782 20.3704 126.799 22.9277 126.799 28.0423C126.799 30.4409 126.253 32.4868 125.161 34.1799C124.068 35.8377 122.113 37.1429 119.294 38.0952C116.475 39.0123 112.563 39.4709 107.56 39.4709H83.7745C84.0564 32.6279 84.1973 26.2257 84.1973 20.2646C84.1973 14.3034 84.0564 7.90124 83.7745 1.0582H96.1956V1.11111H107.454C111.823 1.11111 115.259 1.48148 117.761 2.22222C120.298 2.92769 122.077 3.96826 123.099 5.34392C124.156 6.71958 124.685 8.46561 124.685 10.582C124.685 12.7337 123.927 14.6561 122.412 16.3492C120.932 18.0071 118.377 19.3474 114.748 20.3704ZM96.1956 10.7407V15.6614H106.344C108.529 15.6614 110.044 15.4674 110.89 15.0794C111.77 14.6914 112.211 13.9859 112.211 12.963C112.211 12.1517 111.753 11.5873 110.837 11.2698C109.956 10.9171 108.458 10.7407 106.344 10.7407H96.1956ZM106.344 29.7884C108.176 29.7884 109.568 29.7178 110.52 29.5767C111.506 29.4004 112.211 29.1182 112.634 28.7302C113.057 28.3069 113.268 27.7425 113.268 27.037C113.268 26.1199 112.757 25.4674 111.735 25.0794C110.749 24.6561 108.952 24.4444 106.344 24.4444H96.1956V29.7884H106.344Z" fill="white"/>
<path d="M173.447 13.8624C173.447 16.9312 172.69 19.5238 171.175 21.6402C169.695 23.7566 167.14 25.291 163.51 26.2434C163.933 26.8078 164.233 27.2487 164.409 27.5661L172.972 39.4709H158.595C157.044 36.5785 154.595 32.4868 151.248 27.1958H143.478V39.4709H131.004C131.286 32.6279 131.427 26.2257 131.427 20.2646C131.427 14.3034 131.286 7.90124 131.004 1.0582H143.478V1.11111H154.314C161.431 1.11111 166.4 2.2575 169.219 4.55027C172.038 6.84303 173.447 9.94709 173.447 13.8624ZM143.478 11.2698V17.3016H150.614C153.609 17.3016 155.864 17.2134 157.379 17.037C158.93 16.8254 160.004 16.5079 160.603 16.0847C161.202 15.6614 161.502 15.0441 161.502 14.2328C161.502 13.4568 161.22 12.8571 160.656 12.4339C160.092 12.0106 159.035 11.7108 157.485 11.5344C155.934 11.358 153.644 11.2698 150.614 11.2698H143.478Z" fill="white"/>
<path d="M208.375 11.5873C204.182 11.3757 201.081 11.2522 199.073 11.2169V29.3122C201.116 29.2769 204.217 29.1534 208.375 28.9418V39.4709H177.666V28.9418C181.718 29.1534 184.801 29.2769 186.916 29.3122V11.2169C184.801 11.2522 181.718 11.3757 177.666 11.5873V1.0582H208.375V11.5873Z" fill="white"/>
<path d="M240.201 39.4709C238.545 36.4727 235.797 31.8871 231.956 25.7143L225.772 31.8519V39.4709H212.611C212.893 32.6279 213.034 26.2257 213.034 20.2646C213.034 14.3034 212.893 7.90124 212.611 1.0582H225.772V16.5608C232.255 10.1411 236.872 4.97355 239.62 1.0582H256.745L240.096 17.5661C242.562 21.0229 245.328 24.7795 248.394 28.836C251.495 32.8924 254.296 36.4374 256.798 39.4709H240.201Z" fill="white"/>
<path d="M266.102 40C264.551 40 263.23 39.4533 262.137 38.3598C261.045 37.231 260.499 35.8907 260.499 34.3386C260.499 32.7866 261.045 31.4638 262.137 30.3704C263.23 29.2769 264.551 28.7302 266.102 28.7302C267.617 28.7302 268.921 29.2945 270.013 30.4233C271.141 31.5168 271.704 32.8219 271.704 34.3386C271.704 35.8907 271.141 37.231 270.013 38.3598C268.921 39.4533 267.617 40 266.102 40Z" fill="white"/>
<path d="M308.781 39.4709C308.111 37.4603 307.213 34.9383 306.085 31.9048H289.224L286.581 39.4709H273.314L288.114 1.0582H307.565L322.47 39.4709H308.781ZM303.072 23.6508C301.733 19.9471 300.359 16.2434 298.949 12.5397L297.681 9.10053C296.448 12.3104 294.633 17.1605 292.237 23.6508H303.072Z" fill="white"/>
<path d="M356 11.5873C351.807 11.3757 348.706 11.2522 346.697 11.2169V29.3122C348.741 29.2769 351.842 29.1534 356 28.9418V39.4709H325.291V28.9418C329.343 29.1534 332.426 29.2769 334.54 29.3122V11.2169C332.426 11.2522 329.343 11.3757 325.291 11.5873V1.0582H356V11.5873Z" fill="white"/>
</svg>
