<?xml version="1.0" encoding="UTF-8"?>
<svg xmlns="http://www.w3.org/2000/svg" xmlns:xlink="http://www.w3.org/1999/xlink" width="0" height="0">
<symbol id="attach" width="20" height="20" viewBox="0 0 20 20" fill="none">
<path d="M11.6666 1.66675C9.36544 1.66675 7.49996 3.53223 7.49996 5.83342V12.3959C7.49996 13.7191 8.57261 14.7917 9.89579 14.7917C11.219 14.7917 12.2916 13.7191 12.2916 12.3959V6.45842C12.2916 6.11324 12.0118 5.83342 11.6666 5.83342C11.3214 5.83342 11.0416 6.11324 11.0416 6.45842V12.3959C11.0416 13.0287 10.5286 13.5417 9.89579 13.5417C9.26297 13.5417 8.74996 13.0287 8.74996 12.3959V5.83342C8.74996 4.22258 10.0558 2.91675 11.6666 2.91675C13.2775 2.91675 14.5833 4.22258 14.5833 5.83341V12.7084C14.5833 15.1247 12.6245 17.0834 10.2083 17.0834H9.79163C7.37538 17.0834 5.41663 15.1247 5.41663 12.7084V8.95842C5.41663 8.61324 5.1368 8.33342 4.79163 8.33342C4.44645 8.33342 4.16663 8.61324 4.16663 8.95842V12.7084C4.16663 15.815 6.68502 18.3334 9.79163 18.3334H10.2083C13.3149 18.3334 15.8333 15.815 15.8333 12.7084V5.83341C15.8333 3.53223 13.9678 1.66675 11.6666 1.66675Z" fill="white"/>
</symbol>

<symbol id="clock" width="20" height="20" viewBox="0 0 20 20" fill="none">
<path d="M9.99996 6.45841V10.0001L12.2916 12.2917M17.7083 10.0001C17.7083 14.2573 14.2572 17.7084 9.99996 17.7084C5.74276 17.7084 2.29163 14.2573 2.29163 10.0001C2.29163 5.74289 5.74276 2.29175 9.99996 2.29175C14.2572 2.29175 17.7083 5.74289 17.7083 10.0001Z" stroke="white" stroke-opacity="0.4" stroke-width="1.5" stroke-linecap="round" stroke-linejoin="round"/>
</symbol>

<symbol id="coine" width="25" height="24" viewBox="0 0 25 24" fill="none">
<path d="M13.25 6.75V6H11.75V6.75H13.25ZM11.75 17.25V18H13.25V17.25H11.75ZM12.5 6.75H11.75V8.5H12.5H13.25V6.75H12.5ZM12.5 15.5H11.75V17.25H12.5H13.25V15.5H12.5ZM21.75 12H21C21 16.6944 17.1944 20.5 12.5 20.5V21.25V22C18.0228 22 22.5 17.5228 22.5 12H21.75ZM12.5 21.25V20.5C7.80558 20.5 4 16.6944 4 12H3.25H2.5C2.5 17.5228 6.97715 22 12.5 22V21.25ZM3.25 12H4C4 7.30558 7.80558 3.5 12.5 3.5V2.75V2C6.97715 2 2.5 6.47715 2.5 12H3.25ZM12.5 2.75V3.5C17.1944 3.5 21 7.30558 21 12H21.75H22.5C22.5 6.47715 18.0228 2 12.5 2V2.75ZM12.5 15.5V14.75C10.9812 14.75 9.75 13.5188 9.75 12H9H8.25C8.25 14.3472 10.1528 16.25 12.5 16.25V15.5ZM9 12H9.75C9.75 10.4812 10.9812 9.25 12.5 9.25V8.5V7.75C10.1528 7.75 8.25 9.65279 8.25 12H9ZM12.5 8.5V9.25C13.4995 9.25 14.3752 9.78271 14.8576 10.5833L15.5 10.1962L16.1424 9.80913C15.3999 8.57687 14.0469 7.75 12.5 7.75V8.5ZM15.5 13.8038L14.8576 13.4167C14.3752 14.2173 13.4995 14.75 12.5 14.75V15.5V16.25C14.0469 16.25 15.3999 15.4231 16.1424 14.1909L15.5 13.8038Z" fill="#49B9FF"/>
</symbol>

<symbol id="copy" width="16" height="16" viewBox="0 0 16 16" fill="none">
<path d="M10.1666 5.83325V3.33325C10.1666 2.50482 9.49501 1.83325 8.66659 1.83325H3.33325C2.50482 1.83325 1.83325 2.50482 1.83325 3.33325V8.66659C1.83325 9.49501 2.50482 10.1666 3.33325 10.1666H5.83325M7.33325 5.83325H12.6666C13.495 5.83325 14.1666 6.50483 14.1666 7.33325V12.6666C14.1666 13.495 13.495 14.1666 12.6666 14.1666H7.33325C6.50483 14.1666 5.83325 13.495 5.83325 12.6666V7.33325C5.83325 6.50483 6.50483 5.83325 7.33325 5.83325Z" stroke="white" stroke-width="1.5" stroke-linecap="round" stroke-linejoin="round"/>
</symbol>

<symbol id="crossed" width="16" height="16" viewBox="0 0 16 16" fill="none">
<path d="M5.16663 5.1665L10.8333 10.8332M10.8333 5.1665L5.16663 10.8332" stroke="white" stroke-opacity="0.6" stroke-width="1.5" stroke-linecap="round"/>
</symbol>

<symbol id="diamond" width="20" height="20" viewBox="0 0 20 20" fill="none">
<path d="M10.438 17L2.88049 7.21239M10.438 17L18.1194 7.21239M10.438 17L8.08403 7.21239M10.438 17L13.1017 7.21239M2.88049 7.21239L5.97784 3M2.88049 7.21239H8.08403M5.97784 3L8.08403 7.21239M5.97784 3H10.438M14.8982 3L18.1194 7.21239M14.8982 3H10.438M14.8982 3L13.1017 7.21239M18.1194 7.21239H13.1017M8.08403 7.21239L10.438 3M8.08403 7.21239H13.1017M10.438 3L13.1017 7.21239" stroke="white" stroke-opacity="0.4"/>
</symbol>

<symbol id="download" width="16" height="16" viewBox="0 0 16 16" fill="none">
<path d="M13.5 9.83333V11.5C13.5 12.6046 12.6046 13.5 11.5 13.5H4.5C3.39543 13.5 2.5 12.6046 2.5 11.5V9.83333M7.99999 10V2.5M7.99999 10L5.66667 7.66667M7.99999 10L10.3333 7.66667" stroke="white" stroke-width="1.5" stroke-linecap="round" stroke-linejoin="round"/>
</symbol>

<symbol id="dropdown" width="24" height="24" viewBox="0 0 24 24" fill="none">
<path d="M8 10L10.9393 12.9393C11.5251 13.5251 12.4749 13.5251 13.0607 12.9393L16 10" stroke="white" stroke-opacity="0.4" stroke-width="1.5" stroke-linecap="round" stroke-linejoin="round"/>
</symbol>

<symbol id="expand" width="20" height="20" viewBox="0 0 20 20" fill="none">
<path fill-rule="evenodd" clip-rule="evenodd" d="M10.8333 3.125C10.8333 2.77982 11.1132 2.5 11.4583 2.5H15.625C16.6605 2.5 17.5 3.33947 17.5 4.375V8.54167C17.5 8.88684 17.2202 9.16667 16.875 9.16667C16.5298 9.16667 16.25 8.88684 16.25 8.54167V4.63388L12.1086 8.77528C11.8645 9.01935 11.4688 9.01935 11.2247 8.77528C10.9806 8.5312 10.9806 8.13547 11.2247 7.89139L15.3661 3.75H11.4583C11.1132 3.75 10.8333 3.47018 10.8333 3.125ZM3.125 10.8333C3.47018 10.8333 3.75 11.1132 3.75 11.4583V15.3661L7.89139 11.2247C8.13547 10.9806 8.5312 10.9806 8.77528 11.2247C9.01935 11.4688 9.01935 11.8645 8.77528 12.1086L4.63388 16.25H8.54167C8.88684 16.25 9.16667 16.5298 9.16667 16.875C9.16667 17.2202 8.88684 17.5 8.54167 17.5H4.375C3.33947 17.5 2.5 16.6605 2.5 15.625V11.4583C2.5 11.1132 2.77982 10.8333 3.125 10.8333Z" fill="white" fill-opacity="0.4"/>
</symbol>

<symbol id="flame" width="16" height="16" viewBox="0 0 16 16" fill="none">
<path fill-rule="evenodd" clip-rule="evenodd" d="M7.43841 1.91906C7.82802 1.36248 8.60987 1.16128 9.22046 1.58112C9.85489 2.01736 10.952 2.86049 11.8963 4.04408C12.8402 5.22709 13.6667 6.796 13.6667 8.66651C13.6667 11.9981 11.1652 14.6665 8.00004 14.6665C4.83486 14.6665 2.33337 11.9981 2.33337 8.66651C2.33337 7.3096 2.9161 5.57588 4.05173 4.19172C4.54928 3.58528 5.40781 3.62145 5.90942 4.10334L7.43841 1.91906ZM8.00004 13.3332C8.96654 13.3332 9.75004 12.4388 9.75004 11.3356C9.75004 10.1518 8.82925 9.28098 8.3235 8.89199C8.13042 8.74348 7.86967 8.74348 7.67658 8.89199C7.17083 9.28098 6.25004 10.1518 6.25004 11.3356C6.25004 12.4388 7.03354 13.3332 8.00004 13.3332Z" fill="url(#paint0_linear_38_1149)"/>
<defs>
<linearGradient x1="8.33337" y1="1.33325" x2="8.33337" y2="14.9999" gradientUnits="userSpaceOnUse">
<stop stop-color="#FF7700"/>
<stop offset="1" stop-color="#EF0000"/>
</linearGradient>
</defs>
</symbol>

<symbol id="grow" width="24" height="24" viewBox="0 0 24 24" fill="none">
<path d="M12 12V10.75C12 6.88401 8.86599 3.75 5 3.75H3.75V5C3.75 8.86599 6.88401 12 10.75 12H12ZM12 12V20.25M19 6.75H20.25V8.25C20.25 12.116 17.116 15.25 13.25 15.25H12V13.75C12 9.88401 15.134 6.75 19 6.75Z" stroke="white" stroke-opacity="0.4" stroke-width="1.5" stroke-linecap="round" stroke-linejoin="round"/>
</symbol>

<symbol id="magic-stick" width="25" height="24" viewBox="0 0 25 24" fill="none">
<path fill-rule="evenodd" clip-rule="evenodd" d="M17.4696 3.46979C18.4529 2.48654 20.047 2.48654 21.0303 3.46979C22.0135 4.45304 22.0135 6.0472 21.0303 7.03045L7.53028 20.5305C6.54703 21.5137 4.95286 21.5137 3.96961 20.5305C2.98636 19.5472 2.98637 17.953 3.96962 16.9698L17.4696 3.46979ZM19.9696 4.53045C19.5722 4.13299 18.9277 4.13299 18.5303 4.53045L15.8106 7.25012L17.2499 8.68946L19.9696 5.96979C20.3671 5.57233 20.3671 4.92791 19.9696 4.53045ZM16.1893 9.75012L14.7499 8.31078L5.03028 18.0305C4.63281 18.4279 4.63281 19.0723 5.03027 19.4698C5.42774 19.8673 6.07215 19.8673 6.46962 19.4698L16.1893 9.75012Z" fill="#49B9FF"/>
<path d="M10.35 2.07467C10.4468 2.02628 10.5253 1.94782 10.5736 1.85106L11.0519 0.894557C11.2361 0.526033 11.762 0.526033 11.9463 0.894557L12.4246 1.85106C12.4729 1.94782 12.5514 2.02628 12.6482 2.07467L13.6047 2.55292C13.9732 2.73718 13.9732 3.26308 13.6047 3.44734L12.6482 3.92559C12.5514 3.97398 12.4729 4.05244 12.4246 4.1492L11.9463 5.1057C11.762 5.47423 11.2361 5.47423 11.0519 5.1057L10.5736 4.1492C10.5253 4.05244 10.4468 3.97398 10.35 3.92559L9.39353 3.44734C9.025 3.26308 9.025 2.73718 9.39353 2.55292L10.35 2.07467Z" fill="#49B9FF"/>
<path d="M19.35 13.0747C19.4468 13.0263 19.5253 12.9478 19.5736 12.8511L20.0519 11.8946C20.2361 11.526 20.7621 11.526 20.9463 11.8946L21.4246 12.8511C21.4729 12.9478 21.5514 13.0263 21.6482 13.0747L22.6047 13.5529C22.9732 13.7372 22.9732 14.2631 22.6047 14.4473L21.6482 14.9256C21.5514 14.974 21.4729 15.0524 21.4246 15.1492L20.9463 16.1057C20.7621 16.4742 20.2361 16.4742 20.0519 16.1057L19.5736 15.1492C19.5253 15.0524 19.4468 14.974 19.35 14.9256L18.3935 14.4473C18.025 14.2631 18.025 13.7372 18.3935 13.5529L19.35 13.0747Z" fill="#49B9FF"/>
<path d="M5.35003 7.07467C5.44679 7.02628 5.52525 6.94782 5.57363 6.85106L6.05188 5.89456C6.23615 5.52603 6.76205 5.52603 6.94631 5.89456L7.42456 6.85106C7.47294 6.94782 7.55141 7.02628 7.64817 7.07467L8.60467 7.55292C8.9732 7.73718 8.9732 8.26308 8.60467 8.44734L7.64817 8.92559C7.55141 8.97398 7.47294 9.05244 7.42456 9.1492L6.94631 10.1057C6.76205 10.4742 6.23615 10.4742 6.05188 10.1057L5.57363 9.1492C5.52525 9.05244 5.44679 8.97398 5.35003 8.92559L4.39353 8.44734C4.025 8.26308 4.025 7.73718 4.39353 7.55292L5.35003 7.07467Z" fill="#49B9FF"/>
</symbol>

<symbol id="minimize" width="20" height="20" viewBox="0 0 20 20" fill="none">
<path fill-rule="evenodd" clip-rule="evenodd" d="M11.4583 2.5C11.8035 2.5 12.0833 2.77982 12.0833 3.125V7.03278L16.4331 2.68306C16.6771 2.43898 17.0729 2.43898 17.3169 2.68306C17.561 2.92714 17.561 3.32286 17.3169 3.56694L12.9672 7.91667H16.875C17.2202 7.91667 17.5 8.19649 17.5 8.54167C17.5 8.88684 17.2202 9.16667 16.875 9.16667H11.4583C11.1132 9.16667 10.8333 8.88684 10.8333 8.54167V3.125C10.8333 2.77982 11.1132 2.5 11.4583 2.5ZM2.5 11.4583C2.5 11.1132 2.77982 10.8333 3.125 10.8333H8.54167C8.88684 10.8333 9.16667 11.1132 9.16667 11.4583V16.875C9.16667 17.2202 8.88684 17.5 8.54167 17.5C8.19649 17.5 7.91667 17.2202 7.91667 16.875V12.9672L3.56694 17.3169C3.32286 17.561 2.92714 17.561 2.68306 17.3169C2.43898 17.0729 2.43898 16.6771 2.68306 16.4331L7.03278 12.0833H3.125C2.77982 12.0833 2.5 11.8035 2.5 11.4583Z" fill="white" fill-opacity="0.4"/>
</symbol>

<symbol id="pause" width="24" height="24" viewBox="0 0 24 24" fill="none">
<path d="M5.75 3C4.7835 3 4 3.7835 4 4.75V19.25C4 20.2165 4.7835 21 5.75 21H8.25C9.2165 21 10 20.2165 10 19.25V4.75C10 3.7835 9.2165 3 8.25 3H5.75Z" fill="white"/>
<path d="M15.75 3C14.7835 3 14 3.7835 14 4.75V19.25C14 20.2165 14.7835 21 15.75 21H18.25C19.2165 21 20 20.2165 20 19.25V4.75C20 3.7835 19.2165 3 18.25 3H15.75Z" fill="white"/>
</symbol>

<symbol id="play" width="24" height="24" viewBox="0 0 24 24" fill="none">
<path d="M9.24394 2.36758C7.41419 1.18362 5 2.49701 5 4.67639V19.3238C5 21.5032 7.41419 22.8166 9.24394 21.6326L20.5624 14.3089C22.2371 13.2253 22.2372 10.775 20.5624 9.69129L9.24394 2.36758Z" fill="white" fill-opacity="0.8"/>
</symbol>

<symbol id="plus" width="24" height="24" viewBox="0 0 24 24" fill="none">
<path d="M7 12L12 12M12 12L17 12M12 12L12 17M12 12L12 7" stroke="#49B9FF" stroke-width="2" stroke-linecap="round"/>
</symbol>

<symbol id="remove" width="16" height="16" viewBox="0 0 16 16" fill="none">
<path fill-rule="evenodd" clip-rule="evenodd" d="M1.33331 7.99992C1.33331 4.31802 4.31808 1.33325 7.99998 1.33325C11.6819 1.33325 14.6666 4.31802 14.6666 7.99992C14.6666 11.6818 11.6819 14.6666 7.99998 14.6666C4.31808 14.6666 1.33331 11.6818 1.33331 7.99992ZM6.47138 5.52851C6.21103 5.26816 5.78892 5.26816 5.52858 5.52851C5.26823 5.78886 5.26823 6.21097 5.52858 6.47132L7.05717 7.99992L5.52858 9.52851C5.26823 9.78886 5.26823 10.211 5.52858 10.4713C5.78892 10.7317 6.21103 10.7317 6.47138 10.4713L7.99998 8.94273L9.52858 10.4713C9.78893 10.7317 10.211 10.7317 10.4714 10.4713C10.7317 10.211 10.7317 9.78886 10.4714 9.52851L8.94279 7.99992L10.4714 6.47132C10.7317 6.21097 10.7317 5.78886 10.4714 5.52851C10.211 5.26816 9.78893 5.26816 9.52858 5.52851L7.99998 7.05711L6.47138 5.52851Z" fill="#EF0F13" fill-opacity="0.6"/>
</symbol>

<symbol id="send" width="30" height="30" viewBox="0 0 30 30" fill="none">
<path fill-rule="evenodd" clip-rule="evenodd" d="M15 0C6.71573 0 0 6.71573 0 15C0 23.2843 6.71573 30 15 30C23.2843 30 30 23.2843 30 15C30 6.71573 23.2843 0 15 0ZM16.125 11.341L19.0795 14.2955C19.5188 14.7348 20.2312 14.7348 20.6705 14.2955C21.1098 13.8562 21.1098 13.1438 20.6705 12.7045L17.3865 9.4205C16.0685 8.10248 13.9315 8.10248 12.6135 9.4205L9.3295 12.7045C8.89017 13.1438 8.89017 13.8562 9.3295 14.2955C9.76884 14.7348 10.4812 14.7348 10.9205 14.2955L13.875 11.341V21.375C13.875 21.9963 14.3787 22.5 15 22.5C15.6213 22.5 16.125 21.9963 16.125 21.375V11.341Z" fill="url(#paint0_linear_22_176)"/>
<defs>
<linearGradient x1="0" y1="0" x2="30" y2="30" gradientUnits="userSpaceOnUse">
<stop stop-color="#004AE9"/>
<stop offset="0.481284" stop-color="#0090E9"/>
<stop offset="1" stop-color="#7CC2FF"/>
</linearGradient>
</defs>
</symbol>


<symbol id="svg-sprite" width="0" height="0">
<symbol width="20" height="20" viewBox="0 0 20 20" fill="none">
<path d="M11.6666 1.66675C9.36544 1.66675 7.49996 3.53223 7.49996 5.83342V12.3959C7.49996 13.7191 8.57261 14.7917 9.89579 14.7917C11.219 14.7917 12.2916 13.7191 12.2916 12.3959V6.45842C12.2916 6.11324 12.0118 5.83342 11.6666 5.83342C11.3214 5.83342 11.0416 6.11324 11.0416 6.45842V12.3959C11.0416 13.0287 10.5286 13.5417 9.89579 13.5417C9.26297 13.5417 8.74996 13.0287 8.74996 12.3959V5.83342C8.74996 4.22258 10.0558 2.91675 11.6666 2.91675C13.2775 2.91675 14.5833 4.22258 14.5833 5.83341V12.7084C14.5833 15.1247 12.6245 17.0834 10.2083 17.0834H9.79163C7.37538 17.0834 5.41663 15.1247 5.41663 12.7084V8.95842C5.41663 8.61324 5.1368 8.33342 4.79163 8.33342C4.44645 8.33342 4.16663 8.61324 4.16663 8.95842V12.7084C4.16663 15.815 6.68502 18.3334 9.79163 18.3334H10.2083C13.3149 18.3334 15.8333 15.815 15.8333 12.7084V5.83341C15.8333 3.53223 13.9678 1.66675 11.6666 1.66675Z" fill="white"/>
</symbol>

<symbol id="clock" width="20" height="20" viewBox="0 0 20 20" fill="none">
<path d="M9.99996 6.45841V10.0001L12.2916 12.2917M17.7083 10.0001C17.7083 14.2573 14.2572 17.7084 9.99996 17.7084C5.74276 17.7084 2.29163 14.2573 2.29163 10.0001C2.29163 5.74289 5.74276 2.29175 9.99996 2.29175C14.2572 2.29175 17.7083 5.74289 17.7083 10.0001Z" stroke="white" stroke-opacity="0.4" stroke-width="1.5" stroke-linecap="round" stroke-linejoin="round"/>
</symbol>

<symbol id="coine" width="25" height="24" viewBox="0 0 25 24" fill="none">
<path d="M13.25 6.75V6H11.75V6.75H13.25ZM11.75 17.25V18H13.25V17.25H11.75ZM12.5 6.75H11.75V8.5H12.5H13.25V6.75H12.5ZM12.5 15.5H11.75V17.25H12.5H13.25V15.5H12.5ZM21.75 12H21C21 16.6944 17.1944 20.5 12.5 20.5V21.25V22C18.0228 22 22.5 17.5228 22.5 12H21.75ZM12.5 21.25V20.5C7.80558 20.5 4 16.6944 4 12H3.25H2.5C2.5 17.5228 6.97715 22 12.5 22V21.25ZM3.25 12H4C4 7.30558 7.80558 3.5 12.5 3.5V2.75V2C6.97715 2 2.5 6.47715 2.5 12H3.25ZM12.5 2.75V3.5C17.1944 3.5 21 7.30558 21 12H21.75H22.5C22.5 6.47715 18.0228 2 12.5 2V2.75ZM12.5 15.5V14.75C10.9812 14.75 9.75 13.5188 9.75 12H9H8.25C8.25 14.3472 10.1528 16.25 12.5 16.25V15.5ZM9 12H9.75C9.75 10.4812 10.9812 9.25 12.5 9.25V8.5V7.75C10.1528 7.75 8.25 9.65279 8.25 12H9ZM12.5 8.5V9.25C13.4995 9.25 14.3752 9.78271 14.8576 10.5833L15.5 10.1962L16.1424 9.80913C15.3999 8.57687 14.0469 7.75 12.5 7.75V8.5ZM15.5 13.8038L14.8576 13.4167C14.3752 14.2173 13.4995 14.75 12.5 14.75V15.5V16.25C14.0469 16.25 15.3999 15.4231 16.1424 14.1909L15.5 13.8038Z" fill="#49B9FF"/>
</symbol>

<symbol id="copy" width="16" height="16" viewBox="0 0 16 16" fill="none">
<path d="M10.1666 5.83325V3.33325C10.1666 2.50482 9.49501 1.83325 8.66659 1.83325H3.33325C2.50482 1.83325 1.83325 2.50482 1.83325 3.33325V8.66659C1.83325 9.49501 2.50482 10.1666 3.33325 10.1666H5.83325M7.33325 5.83325H12.6666C13.495 5.83325 14.1666 6.50483 14.1666 7.33325V12.6666C14.1666 13.495 13.495 14.1666 12.6666 14.1666H7.33325C6.50483 14.1666 5.83325 13.495 5.83325 12.6666V7.33325C5.83325 6.50483 6.50483 5.83325 7.33325 5.83325Z" stroke="white" stroke-width="1.5" stroke-linecap="round" stroke-linejoin="round"/>
</symbol>

<symbol id="crossed" width="16" height="16" viewBox="0 0 16 16" fill="none">
<path d="M5.16663 5.1665L10.8333 10.8332M10.8333 5.1665L5.16663 10.8332" stroke="white" stroke-opacity="0.6" stroke-width="1.5" stroke-linecap="round"/>
</symbol>

<symbol id="diamond" width="20" height="20" viewBox="0 0 20 20" fill="none">
<path d="M10.438 17L2.88049 7.21239M10.438 17L18.1194 7.21239M10.438 17L8.08403 7.21239M10.438 17L13.1017 7.21239M2.88049 7.21239L5.97784 3M2.88049 7.21239H8.08403M5.97784 3L8.08403 7.21239M5.97784 3H10.438M14.8982 3L18.1194 7.21239M14.8982 3H10.438M14.8982 3L13.1017 7.21239M18.1194 7.21239H13.1017M8.08403 7.21239L10.438 3M8.08403 7.21239H13.1017M10.438 3L13.1017 7.21239" stroke="white" stroke-opacity="0.4"/>
</symbol>

<symbol id="download" width="16" height="16" viewBox="0 0 16 16" fill="none">
<path d="M13.5 9.83333V11.5C13.5 12.6046 12.6046 13.5 11.5 13.5H4.5C3.39543 13.5 2.5 12.6046 2.5 11.5V9.83333M7.99999 10V2.5M7.99999 10L5.66667 7.66667M7.99999 10L10.3333 7.66667" stroke="white" stroke-width="1.5" stroke-linecap="round" stroke-linejoin="round"/>
</symbol>

<symbol id="dropdown" width="24" height="24" viewBox="0 0 24 24" fill="none">
<path d="M8 10L10.9393 12.9393C11.5251 13.5251 12.4749 13.5251 13.0607 12.9393L16 10" stroke="white" stroke-opacity="0.4" stroke-width="1.5" stroke-linecap="round" stroke-linejoin="round"/>
</symbol>

<symbol id="expand" width="20" height="20" viewBox="0 0 20 20" fill="none">
<path fill-rule="evenodd" clip-rule="evenodd" d="M10.8333 3.125C10.8333 2.77982 11.1132 2.5 11.4583 2.5H15.625C16.6605 2.5 17.5 3.33947 17.5 4.375V8.54167C17.5 8.88684 17.2202 9.16667 16.875 9.16667C16.5298 9.16667 16.25 8.88684 16.25 8.54167V4.63388L12.1086 8.77528C11.8645 9.01935 11.4688 9.01935 11.2247 8.77528C10.9806 8.5312 10.9806 8.13547 11.2247 7.89139L15.3661 3.75H11.4583C11.1132 3.75 10.8333 3.47018 10.8333 3.125ZM3.125 10.8333C3.47018 10.8333 3.75 11.1132 3.75 11.4583V15.3661L7.89139 11.2247C8.13547 10.9806 8.5312 10.9806 8.77528 11.2247C9.01935 11.4688 9.01935 11.8645 8.77528 12.1086L4.63388 16.25H8.54167C8.88684 16.25 9.16667 16.5298 9.16667 16.875C9.16667 17.2202 8.88684 17.5 8.54167 17.5H4.375C3.33947 17.5 2.5 16.6605 2.5 15.625V11.4583C2.5 11.1132 2.77982 10.8333 3.125 10.8333Z" fill="white" fill-opacity="0.4"/>
</symbol>

<symbol id="flame" width="16" height="16" viewBox="0 0 16 16" fill="none">
<path fill-rule="evenodd" clip-rule="evenodd" d="M7.43841 1.91906C7.82802 1.36248 8.60987 1.16128 9.22046 1.58112C9.85489 2.01736 10.952 2.86049 11.8963 4.04408C12.8402 5.22709 13.6667 6.796 13.6667 8.66651C13.6667 11.9981 11.1652 14.6665 8.00004 14.6665C4.83486 14.6665 2.33337 11.9981 2.33337 8.66651C2.33337 7.3096 2.9161 5.57588 4.05173 4.19172C4.54928 3.58528 5.40781 3.62145 5.90942 4.10334L7.43841 1.91906ZM8.00004 13.3332C8.96654 13.3332 9.75004 12.4388 9.75004 11.3356C9.75004 10.1518 8.82925 9.28098 8.3235 8.89199C8.13042 8.74348 7.86967 8.74348 7.67658 8.89199C7.17083 9.28098 6.25004 10.1518 6.25004 11.3356C6.25004 12.4388 7.03354 13.3332 8.00004 13.3332Z" fill="url(#paint0_linear_38_1149)"/>
<defs>
<linearGradient x1="8.33337" y1="1.33325" x2="8.33337" y2="14.9999" gradientUnits="userSpaceOnUse">
<stop stop-color="#FF7700"/>
<stop offset="1" stop-color="#EF0000"/>
</linearGradient>
</defs>
</symbol>

<symbol id="grow" width="24" height="24" viewBox="0 0 24 24" fill="none">
<path d="M12 12V10.75C12 6.88401 8.86599 3.75 5 3.75H3.75V5C3.75 8.86599 6.88401 12 10.75 12H12ZM12 12V20.25M19 6.75H20.25V8.25C20.25 12.116 17.116 15.25 13.25 15.25H12V13.75C12 9.88401 15.134 6.75 19 6.75Z" stroke="white" stroke-opacity="0.4" stroke-width="1.5" stroke-linecap="round" stroke-linejoin="round"/>
</symbol>

<symbol id="magic-stick" width="25" height="24" viewBox="0 0 25 24" fill="none">
<path fill-rule="evenodd" clip-rule="evenodd" d="M17.4696 3.46979C18.4529 2.48654 20.047 2.48654 21.0303 3.46979C22.0135 4.45304 22.0135 6.0472 21.0303 7.03045L7.53028 20.5305C6.54703 21.5137 4.95286 21.5137 3.96961 20.5305C2.98636 19.5472 2.98637 17.953 3.96962 16.9698L17.4696 3.46979ZM19.9696 4.53045C19.5722 4.13299 18.9277 4.13299 18.5303 4.53045L15.8106 7.25012L17.2499 8.68946L19.9696 5.96979C20.3671 5.57233 20.3671 4.92791 19.9696 4.53045ZM16.1893 9.75012L14.7499 8.31078L5.03028 18.0305C4.63281 18.4279 4.63281 19.0723 5.03027 19.4698C5.42774 19.8673 6.07215 19.8673 6.46962 19.4698L16.1893 9.75012Z" fill="#49B9FF"/>
<path d="M10.35 2.07467C10.4468 2.02628 10.5253 1.94782 10.5736 1.85106L11.0519 0.894557C11.2361 0.526033 11.762 0.526033 11.9463 0.894557L12.4246 1.85106C12.4729 1.94782 12.5514 2.02628 12.6482 2.07467L13.6047 2.55292C13.9732 2.73718 13.9732 3.26308 13.6047 3.44734L12.6482 3.92559C12.5514 3.97398 12.4729 4.05244 12.4246 4.1492L11.9463 5.1057C11.762 5.47423 11.2361 5.47423 11.0519 5.1057L10.5736 4.1492C10.5253 4.05244 10.4468 3.97398 10.35 3.92559L9.39353 3.44734C9.025 3.26308 9.025 2.73718 9.39353 2.55292L10.35 2.07467Z" fill="#49B9FF"/>
<path d="M19.35 13.0747C19.4468 13.0263 19.5253 12.9478 19.5736 12.8511L20.0519 11.8946C20.2361 11.526 20.7621 11.526 20.9463 11.8946L21.4246 12.8511C21.4729 12.9478 21.5514 13.0263 21.6482 13.0747L22.6047 13.5529C22.9732 13.7372 22.9732 14.2631 22.6047 14.4473L21.6482 14.9256C21.5514 14.974 21.4729 15.0524 21.4246 15.1492L20.9463 16.1057C20.7621 16.4742 20.2361 16.4742 20.0519 16.1057L19.5736 15.1492C19.5253 15.0524 19.4468 14.974 19.35 14.9256L18.3935 14.4473C18.025 14.2631 18.025 13.7372 18.3935 13.5529L19.35 13.0747Z" fill="#49B9FF"/>
<path d="M5.35003 7.07467C5.44679 7.02628 5.52525 6.94782 5.57363 6.85106L6.05188 5.89456C6.23615 5.52603 6.76205 5.52603 6.94631 5.89456L7.42456 6.85106C7.47294 6.94782 7.55141 7.02628 7.64817 7.07467L8.60467 7.55292C8.9732 7.73718 8.9732 8.26308 8.60467 8.44734L7.64817 8.92559C7.55141 8.97398 7.47294 9.05244 7.42456 9.1492L6.94631 10.1057C6.76205 10.4742 6.23615 10.4742 6.05188 10.1057L5.57363 9.1492C5.52525 9.05244 5.44679 8.97398 5.35003 8.92559L4.39353 8.44734C4.025 8.26308 4.025 7.73718 4.39353 7.55292L5.35003 7.07467Z" fill="#49B9FF"/>
</symbol>

<symbol id="minimize" width="20" height="20" viewBox="0 0 20 20" fill="none">
<path fill-rule="evenodd" clip-rule="evenodd" d="M11.4583 2.5C11.8035 2.5 12.0833 2.77982 12.0833 3.125V7.03278L16.4331 2.68306C16.6771 2.43898 17.0729 2.43898 17.3169 2.68306C17.561 2.92714 17.561 3.32286 17.3169 3.56694L12.9672 7.91667H16.875C17.2202 7.91667 17.5 8.19649 17.5 8.54167C17.5 8.88684 17.2202 9.16667 16.875 9.16667H11.4583C11.1132 9.16667 10.8333 8.88684 10.8333 8.54167V3.125C10.8333 2.77982 11.1132 2.5 11.4583 2.5ZM2.5 11.4583C2.5 11.1132 2.77982 10.8333 3.125 10.8333H8.54167C8.88684 10.8333 9.16667 11.1132 9.16667 11.4583V16.875C9.16667 17.2202 8.88684 17.5 8.54167 17.5C8.19649 17.5 7.91667 17.2202 7.91667 16.875V12.9672L3.56694 17.3169C3.32286 17.561 2.92714 17.561 2.68306 17.3169C2.43898 17.0729 2.43898 16.6771 2.68306 16.4331L7.03278 12.0833H3.125C2.77982 12.0833 2.5 11.8035 2.5 11.4583Z" fill="white" fill-opacity="0.4"/>
</symbol>

<symbol id="pause" width="24" height="24" viewBox="0 0 24 24" fill="none">
<path d="M5.75 3C4.7835 3 4 3.7835 4 4.75V19.25C4 20.2165 4.7835 21 5.75 21H8.25C9.2165 21 10 20.2165 10 19.25V4.75C10 3.7835 9.2165 3 8.25 3H5.75Z" fill="white"/>
<path d="M15.75 3C14.7835 3 14 3.7835 14 4.75V19.25C14 20.2165 14.7835 21 15.75 21H18.25C19.2165 21 20 20.2165 20 19.25V4.75C20 3.7835 19.2165 3 18.25 3H15.75Z" fill="white"/>
</symbol>

<symbol id="play" width="24" height="24" viewBox="0 0 24 24" fill="none">
<path d="M9.24394 2.36758C7.41419 1.18362 5 2.49701 5 4.67639V19.3238C5 21.5032 7.41419 22.8166 9.24394 21.6326L20.5624 14.3089C22.2371 13.2253 22.2372 10.775 20.5624 9.69129L9.24394 2.36758Z" fill="white" fill-opacity="0.8"/>
</symbol>

<symbol id="plus" width="24" height="24" viewBox="0 0 24 24" fill="none">
<path d="M7 12L12 12M12 12L17 12M12 12L12 17M12 12L12 7" stroke="#49B9FF" stroke-width="2" stroke-linecap="round"/>
</symbol>

<symbol id="remove" width="16" height="16" viewBox="0 0 16 16" fill="none">
<path fill-rule="evenodd" clip-rule="evenodd" d="M1.33331 7.99992C1.33331 4.31802 4.31808 1.33325 7.99998 1.33325C11.6819 1.33325 14.6666 4.31802 14.6666 7.99992C14.6666 11.6818 11.6819 14.6666 7.99998 14.6666C4.31808 14.6666 1.33331 11.6818 1.33331 7.99992ZM6.47138 5.52851C6.21103 5.26816 5.78892 5.26816 5.52858 5.52851C5.26823 5.78886 5.26823 6.21097 5.52858 6.47132L7.05717 7.99992L5.52858 9.52851C5.26823 9.78886 5.26823 10.211 5.52858 10.4713C5.78892 10.7317 6.21103 10.7317 6.47138 10.4713L7.99998 8.94273L9.52858 10.4713C9.78893 10.7317 10.211 10.7317 10.4714 10.4713C10.7317 10.211 10.7317 9.78886 10.4714 9.52851L8.94279 7.99992L10.4714 6.47132C10.7317 6.21097 10.7317 5.78886 10.4714 5.52851C10.211 5.26816 9.78893 5.26816 9.52858 5.52851L7.99998 7.05711L6.47138 5.52851Z" fill="#EF0F13" fill-opacity="0.6"/>
</symbol>

<symbol id="send" width="30" height="30" viewBox="0 0 30 30" fill="none">
<path fill-rule="evenodd" clip-rule="evenodd" d="M15 0C6.71573 0 0 6.71573 0 15C0 23.2843 6.71573 30 15 30C23.2843 30 30 23.2843 30 15C30 6.71573 23.2843 0 15 0ZM16.125 11.341L19.0795 14.2955C19.5188 14.7348 20.2312 14.7348 20.6705 14.2955C21.1098 13.8562 21.1098 13.1438 20.6705 12.7045L17.3865 9.4205C16.0685 8.10248 13.9315 8.10248 12.6135 9.4205L9.3295 12.7045C8.89017 13.1438 8.89017 13.8562 9.3295 14.2955C9.76884 14.7348 10.4812 14.7348 10.9205 14.2955L13.875 11.341V21.375C13.875 21.9963 14.3787 22.5 15 22.5C15.6213 22.5 16.125 21.9963 16.125 21.375V11.341Z" fill="url(#paint0_linear_22_176)"/>
<defs>
<linearGradient x1="0" y1="0" x2="30" y2="30" gradientUnits="userSpaceOnUse">
<stop stop-color="#004AE9"/>
<stop offset="0.481284" stop-color="#0090E9"/>
<stop offset="1" stop-color="#7CC2FF"/>
</linearGradient>
</defs>
</symbol>

<symbol id="telegram" width="18" height="17" viewBox="0 0 18 17" fill="none">
<path d="M17.9849 1.88149C18.1251 0.960936 17.2636 0.234341 16.4578 0.593713L0.410419 7.7512C-0.167369 8.00892 -0.125103 8.89806 0.47415 9.09189L3.78348 10.1625C4.41517 10.3669 5.09905 10.2611 5.65064 9.87406L13.1119 4.63749C13.3369 4.47954 13.5821 4.80457 13.3898 5.00583L8.0191 10.631C7.49811 11.1767 7.6015 12.1014 8.22824 12.5006L14.2414 16.3312C14.9158 16.7608 15.7834 16.3293 15.9095 15.5013L17.9849 1.88149Z" fill="#49B9FF"/>
</symbol>

<symbol id="warning" width="81" height="80" viewBox="0 0 81 80" fill="none">
<path fill-rule="evenodd" clip-rule="evenodd" d="M31.8589 11.5253C35.7176 4.91021 45.2757 4.91019 49.1344 11.5253L72.5275 51.6277C76.4164 58.2943 71.6076 66.6664 63.8897 66.6664H17.1036C9.38566 66.6664 4.57694 58.2943 8.46577 51.6277L31.8589 11.5253ZM40.5 26.6665C42.3409 26.6665 43.8333 28.1589 43.8333 29.9998V39.9998C43.8333 41.8408 42.3409 43.3332 40.5 43.3332C38.659 43.3332 37.1666 41.8408 37.1666 39.9998V29.9998C37.1666 28.1589 38.659 26.6665 40.5 26.6665ZM36.3333 49.9998C36.3333 47.6987 38.1988 45.8332 40.5 45.8332C42.8011 45.8332 44.6666 47.6987 44.6666 49.9998C44.6666 52.301 42.8011 54.1665 40.5 54.1665C38.1988 54.1665 36.3333 52.301 36.3333 49.9998Z" fill="white" fill-opacity="0.2"/>
</symbol>

</symbol>

<symbol id="telegram" width="18" height="17" viewBox="0 0 18 17" fill="none">
<path d="M17.9849 1.88149C18.1251 0.960936 17.2636 0.234341 16.4578 0.593713L0.410419 7.7512C-0.167369 8.00892 -0.125103 8.89806 0.47415 9.09189L3.78348 10.1625C4.41517 10.3669 5.09905 10.2611 5.65064 9.87406L13.1119 4.63749C13.3369 4.47954 13.5821 4.80457 13.3898 5.00583L8.0191 10.631C7.49811 11.1767 7.6015 12.1014 8.22824 12.5006L14.2414 16.3312C14.9158 16.7608 15.7834 16.3293 15.9095 15.5013L17.9849 1.88149Z" fill="#49B9FF"/>
</symbol>

<symbol id="warning" width="81" height="80" viewBox="0 0 81 80" fill="none">
<path fill-rule="evenodd" clip-rule="evenodd" d="M31.8589 11.5253C35.7176 4.91021 45.2757 4.91019 49.1344 11.5253L72.5275 51.6277C76.4164 58.2943 71.6076 66.6664 63.8897 66.6664H17.1036C9.38566 66.6664 4.57694 58.2943 8.46577 51.6277L31.8589 11.5253ZM40.5 26.6665C42.3409 26.6665 43.8333 28.1589 43.8333 29.9998V39.9998C43.8333 41.8408 42.3409 43.3332 40.5 43.3332C38.659 43.3332 37.1666 41.8408 37.1666 39.9998V29.9998C37.1666 28.1589 38.659 26.6665 40.5 26.6665ZM36.3333 49.9998C36.3333 47.6987 38.1988 45.8332 40.5 45.8332C42.8011 45.8332 44.6666 47.6987 44.6666 49.9998C44.6666 52.301 42.8011 54.1665 40.5 54.1665C38.1988 54.1665 36.3333 52.301 36.3333 49.9998Z" fill="white" fill-opacity="0.2"/>
</symbol>

<symbol id="quantity-1" width="20" height="20" viewBox="0 0 20 20" fill="none">
<rect x="1.75" y="1.75" width="16.5" height="16.5" rx="3.25" stroke="white" stroke-opacity="0.4" stroke-width="1.5"/>
<circle cx="10" cy="10" r="2" fill="white" fill-opacity="0.4"/>
</symbol>

<symbol id="quantity-2" width="20" height="20" viewBox="0 0 20 20" fill="none">
<rect x="1.75" y="1.75" width="16.5" height="16.5" rx="3.25" stroke="white" stroke-opacity="0.4" stroke-width="1.5"/>
<circle cx="6" cy="10" r="2" fill="white" fill-opacity="0.4"/>
<circle cx="14" cy="10" r="2" fill="white" fill-opacity="0.4"/>
</symbol>

<symbol id="quantity-4" width="20" height="20" viewBox="0 0 20 20" fill="none">
<rect x="1.75" y="1.75" width="16.5" height="16.5" rx="3.25" stroke="white" stroke-opacity="0.4" stroke-width="1.5"/>
<circle cx="6" cy="6" r="2" fill="white" fill-opacity="0.4"/>
<circle cx="6" cy="14" r="2" fill="white" fill-opacity="0.4"/>
<circle cx="14" cy="6" r="2" fill="white" fill-opacity="0.4"/>
<circle cx="14" cy="14" r="2" fill="white" fill-opacity="0.4"/>
</symbol>

<symbol id="quantity-6" width="20" height="20" viewBox="0 0 20 20" fill="none">
<rect x="1.75" y="1.75" width="16.5" height="16.5" rx="3.25" stroke="white" stroke-opacity="0.4" stroke-width="1.5"/>
<circle cx="5.63636" cy="5.49989" r="1.63636" fill="white" fill-opacity="0.4"/>
<circle cx="10" cy="5.49989" r="1.63636" fill="white" fill-opacity="0.4"/>
<circle cx="14.3637" cy="5.49989" r="1.63636" fill="white" fill-opacity="0.4"/>
<circle cx="5.63636" cy="14.6364" r="1.63636" fill="white" fill-opacity="0.4"/>
<circle cx="10" cy="14.6364" r="1.63636" fill="white" fill-opacity="0.4"/>
<circle cx="14.3637" cy="14.6364" r="1.63636" fill="white" fill-opacity="0.4"/>
</symbol>

</svg>
